HIERARCHY
ROOT Hips
{
	OFFSET 0.000000 71.427986 0.000000
	CHANNELS 6 Xposition Yposition Zposition Xrotation Yrotation Zrotation
	JOINT Pelvis
	{
		OFFSET 0.000000 0.000000 0.000000
		CHANNELS 3 Xrotation Yrotation Zrotation
		JOINT LeftUpLeg
		{
			OFFSET 6.797100 -2.508499 -1.318700
			CHANNELS 3 Xrotation Yrotation Zrotation
			JOINT LeftLeg
			{
				OFFSET 0.069008 -29.241863 0.690200
				CHANNELS 3 Xrotation Yrotation Zrotation
				JOINT LeftFoot
				{
					OFFSET -0.069008 -29.568123 -0.266800
					CHANNELS 3 Xrotation Yrotation Zrotation
					JOINT LeftToeBase
					{
						OFFSET 3.145500 -8.631000 16.059900
						CHANNELS 3 Xrotation Yrotation Zrotation
						End Site
						{
							OFFSET 0.000000 18.501587 0.000000
						}
					}
				}
			}
			JOINT Left_ShortSleeve
			{
				OFFSET 0.265923 -10.480953 1.153800
				CHANNELS 3 Xrotation Yrotation Zrotation
				End Site
				{
					OFFSET 1.725763 19.823879 0.000000
				}
			}
		}
		JOINT RightUpLeg
		{
			OFFSET -6.797100 -2.508499 -1.318700
			CHANNELS 3 Xrotation Yrotation Zrotation
			JOINT RightLeg
			{
				OFFSET -0.082453 -29.241932 0.688000
				CHANNELS 3 Xrotation Yrotation Zrotation
				JOINT RightFoot
				{
					OFFSET 0.082453 -29.568058 -0.264600
					CHANNELS 3 Xrotation Yrotation Zrotation
					JOINT RightToeBase
					{
						OFFSET -3.115300 -8.682800 16.113400
						CHANNELS 3 Xrotation Yrotation Zrotation
						End Site
						{
							OFFSET 0.000000 18.567114 0.000000
						}
					}
				}
			}
			JOINT Right_ShortSleeve
			{
				OFFSET -0.265923 -10.480953 1.153800
				CHANNELS 3 Xrotation Yrotation Zrotation
				End Site
				{
					OFFSET -1.725766 19.823910 0.000000
				}
			}
		}
	}
	JOINT Spine
	{
		OFFSET 0.000000 13.368103 0.470500
		CHANNELS 3 Xrotation Yrotation Zrotation
		JOINT Spine1
		{
			OFFSET 0.147000 13.837402 0.538800
			CHANNELS 3 Xrotation Yrotation Zrotation
			JOINT Spine2
			{
				OFFSET 0.168000 16.242897 -1.435500
				CHANNELS 3 Xrotation Yrotation Zrotation
				JOINT Neck
				{
					OFFSET 0.217200 18.631500 -1.679100
					CHANNELS 3 Xrotation Yrotation Zrotation
					JOINT Head
					{
						OFFSET 0.000000 6.599396 1.385900
						CHANNELS 3 Xrotation Yrotation Zrotation
						JOINT Hat
						{
							OFFSET -0.532200 27.220596 -10.096100
							CHANNELS 3 Xrotation Yrotation Zrotation
							End Site
							{
								OFFSET 0.000000 22.029861 0.000000
							}
						}
						JOINT HairD
						{
							OFFSET -10.777400 17.437393 -1.325900
							CHANNELS 3 Xrotation Yrotation Zrotation
							JOINT HairD1
							{
								OFFSET -3.290299 -11.051193 1.062200
								CHANNELS 3 Xrotation Yrotation Zrotation
								End Site
								{
									OFFSET 0.000000 11.579437 0.000000
								}
							}
						}
						JOINT HairB
						{
							OFFSET -10.777400 17.437393 1.467900
							CHANNELS 3 Xrotation Yrotation Zrotation
							JOINT HairB1
							{
								OFFSET -1.561200 -12.956299 3.590200
								CHANNELS 3 Xrotation Yrotation Zrotation
								End Site
								{
									OFFSET 0.000000 13.534866 0.000000
								}
							}
						}
						JOINT HairA
						{
							OFFSET 9.713100 17.437393 1.467900
							CHANNELS 3 Xrotation Yrotation Zrotation
							JOINT HairA1
							{
								OFFSET 1.561200 -12.956299 3.590200
								CHANNELS 3 Xrotation Yrotation Zrotation
								End Site
								{
									OFFSET 0.000000 13.534866 0.000000
								}
							}
						}
						JOINT HairC
						{
							OFFSET 9.713100 17.437393 -1.325900
							CHANNELS 3 Xrotation Yrotation Zrotation
							JOINT HairC1
							{
								OFFSET 3.290300 -11.051193 1.062200
								CHANNELS 3 Xrotation Yrotation Zrotation
								End Site
								{
									OFFSET 0.000000 11.579437 0.000000
								}
							}
						}
					}
				}
				JOINT LeftShoulder
				{
					OFFSET 5.101800 15.108002 -2.763700
					CHANNELS 3 Xrotation Yrotation Zrotation
					JOINT LeftArm
					{
						OFFSET 9.825497 2.506317 -1.597400
						CHANNELS 3 Xrotation Yrotation Zrotation
						JOINT LeftForeArm
						{
							OFFSET 21.966244 0.000000 0.000000
							CHANNELS 3 Xrotation Yrotation Zrotation
							JOINT LeftHand
							{
								OFFSET 33.879036 0.000000 0.000000
								CHANNELS 3 Xrotation Yrotation Zrotation
								JOINT LeftHandThumb1
								{
									OFFSET 6.715286 -2.359680 3.363841
									CHANNELS 3 Xrotation Yrotation Zrotation
									JOINT LeftHandThumb2
									{
										OFFSET 2.507072 -1.447464 1.447461
										CHANNELS 3 Xrotation Yrotation Zrotation
										JOINT LeftHandThumb3
										{
											OFFSET 2.898338 -1.673355 1.673357
											CHANNELS 3 Xrotation Yrotation Zrotation
											End Site
											{
												OFFSET -0.295959 3.727692 -0.131651
											}
										}
									}
								}
								JOINT LeftHandIndex1
								{
									OFFSET 14.190811 -0.254547 3.840278
									CHANNELS 3 Xrotation Yrotation Zrotation
									JOINT LeftHandIndex2
									{
										OFFSET 3.551727 0.000000 -0.000000
										CHANNELS 3 Xrotation Yrotation Zrotation
										JOINT LeftHandIndex3
										{
											OFFSET 2.894196 0.000000 0.000000
											CHANNELS 3 Xrotation Yrotation Zrotation
											End Site
											{
												OFFSET -1.000603 2.690872 0.366626
											}
										}
									}
								}
								JOINT LeftHandMiddle1
								{
									OFFSET 13.776489 0.000000 0.000000
									CHANNELS 3 Xrotation Yrotation Zrotation
									JOINT LeftHandMiddle2
									{
										OFFSET 3.438232 0.000000 0.000000
										CHANNELS 3 Xrotation Yrotation Zrotation
										JOINT LeftHandMiddle3
										{
											OFFSET 3.691551 0.000000 0.000000
											CHANNELS 3 Xrotation Yrotation Zrotation
											End Site
											{
												OFFSET -1.082298 3.499527 0.457670
											}
										}
									}
								}
								JOINT LeftHandRing1
								{
									OFFSET 13.966164 -0.268127 -3.067488
									CHANNELS 3 Xrotation Yrotation Zrotation
									JOINT LeftHandRing2
									{
										OFFSET 3.162567 0.000000 0.000000
										CHANNELS 3 Xrotation Yrotation Zrotation
										JOINT LeftHandRing3
										{
											OFFSET 3.324348 0.000000 0.000000
											CHANNELS 3 Xrotation Yrotation Zrotation
											End Site
											{
												OFFSET -0.861900 3.184998 0.405154
											}
										}
									}
								}
								JOINT LeftHandPinky1
								{
									OFFSET 13.131393 -0.168503 -5.746925
									CHANNELS 3 Xrotation Yrotation Zrotation
									JOINT LeftHandPinky2
									{
										OFFSET 2.849182 0.000000 0.000000
										CHANNELS 3 Xrotation Yrotation Zrotation
										JOINT LeftHandPinky3
										{
											OFFSET 2.805038 0.000000 0.000000
											CHANNELS 3 Xrotation Yrotation Zrotation
											End Site
											{
												OFFSET -0.882500 2.642609 0.325652
											}
										}
									}
								}
							}
							JOINT Left_Sleeve
							{
								OFFSET 6.592125 -0.646545 0.805568
								CHANNELS 3 Xrotation Yrotation Zrotation
								End Site
								{
									OFFSET -0.000179 20.275787 -0.000000
								}
							}
						}
					}
				}
				JOINT RightShoulder
				{
					OFFSET -5.731700 15.108002 -2.763700
					CHANNELS 3 Xrotation Yrotation Zrotation
					JOINT RightArm
					{
						OFFSET -9.825497 2.506317 -1.597400
						CHANNELS 3 Xrotation Yrotation Zrotation
						JOINT RightForeArm
						{
							OFFSET -21.966242 0.000000 0.000000
							CHANNELS 3 Xrotation Yrotation Zrotation
							JOINT RightHand
							{
								OFFSET -33.879032 0.000000 0.000000
								CHANNELS 3 Xrotation Yrotation Zrotation
								JOINT RightHandThumb1
								{
									OFFSET -6.715286 -2.359680 3.363841
									CHANNELS 3 Xrotation Yrotation Zrotation
									JOINT RightHandThumb2
									{
										OFFSET -2.507072 -1.447464 1.447461
										CHANNELS 3 Xrotation Yrotation Zrotation
										JOINT RightHandThumb3
										{
											OFFSET -2.898338 -1.673355 1.673357
											CHANNELS 3 Xrotation Yrotation Zrotation
											End Site
											{
												OFFSET 0.295959 3.727692 -0.131651
											}
										}
									}
								}
								JOINT RightHandIndex1
								{
									OFFSET -14.190811 -0.254547 3.840278
									CHANNELS 3 Xrotation Yrotation Zrotation
									JOINT RightHandIndex2
									{
										OFFSET -3.551727 0.000000 -0.000000
										CHANNELS 3 Xrotation Yrotation Zrotation
										JOINT RightHandIndex3
										{
											OFFSET -2.894196 0.000000 0.000000
											CHANNELS 3 Xrotation Yrotation Zrotation
											End Site
											{
												OFFSET 1.000603 2.690872 0.366626
											}
										}
									}
								}
								JOINT RightHandMiddle1
								{
									OFFSET -13.776489 0.000000 0.000000
									CHANNELS 3 Xrotation Yrotation Zrotation
									JOINT RightHandMiddle2
									{
										OFFSET -3.438232 0.000000 0.000000
										CHANNELS 3 Xrotation Yrotation Zrotation
										JOINT RightHandMiddle3
										{
											OFFSET -3.691551 0.000000 0.000000
											CHANNELS 3 Xrotation Yrotation Zrotation
											End Site
											{
												OFFSET 1.082298 3.499527 0.457670
											}
										}
									}
								}
								JOINT RightHandRing1
								{
									OFFSET -13.966164 -0.268127 -3.067488
									CHANNELS 3 Xrotation Yrotation Zrotation
									JOINT RightHandRing2
									{
										OFFSET -3.162567 0.000000 0.000000
										CHANNELS 3 Xrotation Yrotation Zrotation
										JOINT RightHandRing3
										{
											OFFSET -3.324348 0.000000 0.000000
											CHANNELS 3 Xrotation Yrotation Zrotation
											End Site
											{
												OFFSET 0.861900 3.184998 0.405154
											}
										}
									}
								}
								JOINT RightHandPinky1
								{
									OFFSET -13.131393 -0.168503 -5.746925
									CHANNELS 3 Xrotation Yrotation Zrotation
									JOINT RightHandPinky2
									{
										OFFSET -2.849182 0.000000 0.000000
										CHANNELS 3 Xrotation Yrotation Zrotation
										JOINT RightHandPinky3
										{
											OFFSET -2.805038 0.000000 0.000000
											CHANNELS 3 Xrotation Yrotation Zrotation
											End Site
											{
												OFFSET 0.882500 2.642609 0.325652
											}
										}
									}
								}
							}
							JOINT Right_Sleeve
							{
								OFFSET -6.592125 -0.646545 0.805568
								CHANNELS 3 Xrotation Yrotation Zrotation
								End Site
								{
									OFFSET 0.000179 20.275787 -0.000000
								}
							}
						}
					}
				}
				JOINT Bind_Right_JacketString
				{
					OFFSET -3.534800 11.969597 7.200700
					CHANNELS 3 Xrotation Yrotation Zrotation
					JOINT Bind_Right_JacketString1
					{
						OFFSET -0.319900 -6.102600 2.794100
						CHANNELS 3 Xrotation Yrotation Zrotation
						End Site
						{
							OFFSET 0.000000 6.719452 0.000000
						}
					}
				}
				JOINT Bind_Left_JacketString
				{
					OFFSET 2.904800 11.969597 7.200700
					CHANNELS 3 Xrotation Yrotation Zrotation
					JOINT Bind_Left_JacketString1
					{
						OFFSET 0.364800 -5.904503 3.186800
						CHANNELS 3 Xrotation Yrotation Zrotation
						End Site
						{
							OFFSET 0.000000 6.719513 0.000000
						}
					}
				}
				JOINT HairE
				{
					OFFSET 5.915200 17.612701 -11.592200
					CHANNELS 3 Xrotation Yrotation Zrotation
					JOINT HairE1
					{
						OFFSET 0.289200 -7.171898 -1.284500
						CHANNELS 3 Xrotation Yrotation Zrotation
						End Site
						{
							OFFSET 0.000000 7.291756 0.000000
						}
					}
				}
				JOINT HairF
				{
					OFFSET -0.864800 17.612701 -11.592200
					CHANNELS 3 Xrotation Yrotation Zrotation
					JOINT HairF1
					{
						OFFSET 0.000000 -14.087097 -2.127501
						CHANNELS 3 Xrotation Yrotation Zrotation
						End Site
						{
							OFFSET 0.000000 14.246841 0.000000
						}
					}
				}
				JOINT HairG
				{
					OFFSET -8.087700 17.612701 -11.592200
					CHANNELS 3 Xrotation Yrotation Zrotation
					JOINT HairG1
					{
						OFFSET -0.293600 -6.081398 -0.910100
						CHANNELS 3 Xrotation Yrotation Zrotation
						End Site
						{
							OFFSET 0.000000 6.156120 0.000000
						}
					}
				}
			}
		}
	}
	JOINT Pouch
	{
		OFFSET 0.000000 4.394501 10.847300
		CHANNELS 3 Xrotation Yrotation Zrotation
		End Site
		{
			OFFSET 0.000000 21.880577 0.000000
		}
	}
	JOINT Bag
	{
		OFFSET -13.229000 4.813004 -0.593300
		CHANNELS 3 Xrotation Yrotation Zrotation
		End Site
		{
			OFFSET 0.000000 21.880577 0.000000
		}
	}
	JOINT OccupyGuyFacialAnim_Joint
	{
		OFFSET 1.000000 -70.206398 -1.655000
		CHANNELS 3 Xrotation Yrotation Zrotation
		End Site
		{
			OFFSET 0.000000 21.880577 0.000000
		}
	}
}
MOTION
Frames: 4
Frame Time: 0.033333
0.018902 89.713074 1.486767 -1.011894 1.613637 0.528633 0.000000 0.000000 0.000000 -22.266126 9.394731 1.500253 43.628434 14.682415 1.473281 30.462391 1.450908 6.383508 0.000001 -0.000000 -0.000001 -0.000001 0.000001 -0.000000 -5.313919 -8.148431 -2.151087 26.140493 -19.954898 1.991323 42.295134 0.188384 0.767712 0.000001 -0.000001 0.000002 -0.000001 -0.000000 -0.000000 -2.805602 -0.062420 -0.210158 -5.611697 -0.102273 -0.620864 -5.611693 -0.102273 -0.620864 -27.780186 0.884572 -2.478845 -5.939950 -1.809257 2.604352 -0.000001 0.000000 0.000000 -0.000001 0.000000 0.000000 -0.000001 0.000000 0.000000 -0.000001 0.000000 0.000000 -0.000001 0.000000 -0.000000 -0.000001 0.000000 0.000000 -0.000001 0.000000 -0.000000 -0.000001 0.000000 0.000000 -0.000001 0.000000 0.000000 7.248422 6.365630 32.385168 -52.895328 -36.819876 5.857814 -23.466848 -23.506924 1.478701 -3.826444 -2.003312 0.833558 -23.505068 8.724708 4.055240 -11.818392 8.158936 13.633709 0.000001 -0.000002 -0.000002 -0.793906 -9.944862 -73.989902 -8.742882 -2.825318 -82.562309 0.000001 0.000001 0.000000 -7.057131 -4.106572 -72.543972 -5.071190 -4.491944 -69.918420 -0.000001 0.000001 0.000001 -10.868882 6.242522 -70.785615 -0.409495 -6.819505 -77.462459 -0.000002 0.000000 0.000001 -15.058351 6.364008 -69.029122 0.828519 -8.182919 -68.648674 -0.000002 0.000000 -0.000001 0.000000 0.000000 -0.000001 2.277642 -6.651279 -36.122579 -64.303909 35.763946 7.685033 -24.527646 16.756986 0.686874 10.834988 10.092903 2.136014 -17.327369 6.468850 -26.575887 3.045387 -20.333169 1.155707 -0.000000 -0.000001 -0.000000 -8.189470 4.700911 83.344372 -5.502055 0.854574 81.248877 -0.000001 -0.000001 0.000000 -13.105743 1.845240 86.654999 -5.617186 1.089132 83.764566 -0.000000 0.000000 0.000001 -13.657591 -7.092582 77.657844 -0.194326 7.087318 77.421294 -0.000001 0.000001 0.000002 -17.941857 -11.668133 76.734928 1.092344 11.886568 73.232817 -0.000000 0.000000 0.000004 0.000000 -0.000000 -0.000000 -0.000001 0.000000 0.000000 -0.000001 -0.000000 -0.000000 -0.000001 0.000000 -0.000000 -0.000001 0.000000 -0.000000 -0.000001 0.000000 0.000000 -0.000001 -0.000000 -0.000000 -0.000001 0.000000 -0.000000 -0.000001 0.000000 -0.000000 -0.000001 0.000000 0.000000 -0.000001 -0.000000 -0.000000 0.000000 0.000000 0.000000 0.000000 0.000000 0.000000 0.000000 0.000000 0.000000 
0.249966 90.060532 1.711443 -0.929491 2.111853 0.316702 -0.000000 0.000000 -0.000000 -21.960527 9.457732 1.667872 43.337164 14.988439 1.407392 28.379964 1.649758 7.160867 0.000004 0.000001 -0.000001 0.000001 0.000001 -0.000000 -4.867952 -9.150315 -3.074720 26.335784 -16.201846 3.628729 40.087883 1.977902 5.247198 -0.000001 0.000000 -0.000001 0.000000 0.000000 -0.000000 -3.079231 -0.043028 -0.219117 -6.158783 -0.055197 -0.662905 -6.158774 -0.055197 -0.662904 -30.780893 1.441088 -4.637373 -2.038520 -3.595269 3.144972 -0.000004 -0.000000 0.000000 -0.000004 -0.000000 0.000000 -0.000004 -0.000000 0.000000 -0.000004 -0.000000 0.000000 -0.000002 0.000000 0.000000 -0.000004 -0.000000 0.000000 -0.000002 0.000000 0.000000 -0.000004 -0.000000 0.000000 -0.000004 -0.000000 0.000000 7.723538 5.834132 32.026542 -54.369214 -37.850900 3.816940 -23.993568 -25.045353 1.385988 -1.472516 -0.783247 0.735397 -23.505109 8.724704 4.055283 -11.818389 8.158944 13.633683 -0.000000 -0.000001 -0.000001 -0.793915 -9.944874 -73.989889 -8.742877 -2.825326 -82.562261 0.000001 0.000001 -0.000000 -7.057128 -4.106578 -72.543965 -5.071171 -4.491947 -69.918352 -0.000000 0.000000 0.000001 -10.868883 6.242516 -70.785588 -0.409492 -6.819487 -77.462391 -0.000002 0.000000 -0.000003 -15.058346 6.363991 -69.029068 0.828528 -8.182925 -68.648592 -0.000001 -0.000001 0.000003 0.000000 -0.000000 -0.000001 2.653034 -7.187833 -35.642632 -66.396747 35.512824 10.724234 -24.199072 17.801749 0.041090 12.891913 10.011108 2.600586 -17.326211 6.469370 -26.567877 3.045389 -20.333166 1.155685 -0.000002 0.000000 -0.000001 -8.186550 4.698479 83.349126 -5.501201 0.854230 81.240428 -0.000001 -0.000001 0.000004 -13.103243 1.847305 86.657793 -5.619827 1.090716 83.755297 0.000000 -0.000001 0.000001 -13.657883 -7.093645 77.655221 -0.197442 7.087132 77.441668 0.000003 0.000000 -0.000002 -17.941635 -11.671086 76.725858 1.089875 11.886863 73.238418 0.000003 0.000000 0.000004 -0.000001 0.000000 0.000000 0.000001 0.000000 -0.000000 -0.000000 0.000000 0.000000 0.000001 0.000000 -0.000000 0.000001 0.000000 -0.000000 0.000001 0.000000 -0.000000 -0.000000 0.000000 0.000000 0.000001 0.000000 -0.000000 0.000001 0.000000 -0.000000 0.000001 0.000000 -0.000000 -0.000000 0.000000 0.000000 -0.000000 0.000000 -0.000000 -0.000000 0.000000 -0.000000 -0.000000 0.000000 -0.000000 
0.394509 90.507011 1.990130 -0.937891 2.272926 0.032401 -0.000000 0.000000 0.000000 -22.115729 9.154262 1.918293 44.395724 16.118355 1.201163 25.438230 1.741383 7.118806 -0.000000 0.000002 -0.000003 -0.000001 -0.000000 -0.000001 -4.229439 -11.219982 -5.191420 26.035957 -10.674129 5.701870 37.649434 3.794731 10.669567 -0.000001 -0.000001 0.000001 0.000000 0.000001 -0.000000 -3.472242 -0.012511 -0.223009 -6.944493 0.011491 -0.669326 -6.944496 0.011491 -0.669326 -31.051942 1.736054 -7.637720 1.305941 -6.245891 4.263437 -0.000001 0.000000 -0.000000 -0.000001 0.000000 -0.000000 -0.000001 0.000000 -0.000000 -0.000001 0.000000 -0.000000 -0.000003 0.000000 -0.000000 -0.000001 0.000000 -0.000000 -0.000003 0.000000 -0.000000 -0.000001 0.000000 -0.000000 -0.000001 0.000000 -0.000000 8.600749 4.808078 31.258115 -56.294942 -39.436389 1.177038 -24.221883 -26.136556 1.620253 1.980295 0.223168 0.278496 -23.504954 8.724612 4.055069 -11.818442 8.158701 13.633497 0.000000 0.000001 -0.000001 -0.793877 -9.944870 -73.989732 -8.742799 -2.825350 -82.561483 0.000000 0.000001 -0.000004 -7.057208 -4.106445 -72.544402 -5.070937 -4.491868 -69.916637 0.000001 0.000002 -0.000003 -10.868862 6.242491 -70.785635 -0.409399 -6.819509 -77.461162 -0.000002 0.000000 0.000001 -15.058298 6.363950 -69.029088 0.828537 -8.182925 -68.647704 0.000001 -0.000002 -0.000001 0.000000 0.000000 0.000002 4.573719 -5.006557 -35.637390 -65.676155 31.798069 11.798037 -23.153356 23.065370 -1.490677 14.037580 8.006431 4.141542 -17.329745 6.466722 -26.581119 3.045325 -20.332949 1.155660 0.000000 0.000000 -0.000000 -8.191256 4.701349 83.331682 -5.504530 0.856493 81.277434 -0.000001 -0.000000 0.000002 -13.105026 1.845395 86.641339 -5.622736 1.090370 83.781293 0.000001 -0.000001 -0.000003 -13.657038 -7.093483 77.652147 -0.197302 7.088786 77.418295 0.000000 -0.000001 -0.000000 -17.937113 -11.673905 76.746533 1.088213 11.886795 73.230303 0.000001 -0.000001 0.000000 -0.000002 0.000000 0.000000 -0.000001 0.000000 -0.000000 -0.000001 0.000000 -0.000000 -0.000001 0.000000 -0.000000 -0.000001 0.000000 -0.000000 -0.000001 0.000000 -0.000000 -0.000001 0.000000 -0.000000 -0.000001 0.000000 -0.000000 -0.000001 0.000000 -0.000000 -0.000001 0.000000 -0.000000 -0.000001 0.000000 -0.000000 -0.000000 0.000000 0.000000 -0.000000 0.000000 0.000000 -0.000000 0.000000 0.000000 
0.439825 91.051537 2.298268 -1.031901 2.240867 -0.332768 -0.000000 0.000000 0.000000 -22.599260 8.434653 2.071526 46.411600 17.982734 0.870364 21.941679 1.755308 6.232794 0.000001 0.000001 -0.000002 -0.000001 -0.000001 -0.000000 -3.362542 -14.302962 -8.368758 24.534248 -4.093255 7.818022 35.130853 5.547364 17.009562 -0.000003 0.000001 -0.000002 -0.000000 0.000000 0.000001 -3.973130 0.049596 -0.208268 -7.945758 0.131753 -0.591571 -7.945749 0.131751 -0.591571 -29.068366 1.192926 -10.468408 4.101414 -9.437580 5.323925 -0.000000 -0.000000 0.000000 -0.000000 -0.000000 0.000000 -0.000000 -0.000000 0.000000 -0.000000 -0.000000 0.000000 0.000000 0.000000 0.000000 -0.000000 -0.000000 0.000000 0.000000 0.000000 0.000000 -0.000000 -0.000000 0.000000 -0.000000 -0.000000 0.000000 9.742052 3.227994 29.778754 -58.632946 -41.889543 -2.083467 -23.869262 -26.257764 2.309385 6.115732 0.621719 -0.432110 -23.504920 8.724599 4.054943 -11.818439 8.158754 13.633600 0.000001 0.000001 0.000000 -0.793889 -9.944852 -73.989786 -8.742842 -2.825343 -82.561735 0.000001 0.000000 -0.000002 -7.057201 -4.106456 -72.544375 -5.071005 -4.491874 -69.917231 -0.000001 0.000001 0.000001 -10.868898 6.242514 -70.785731 -0.409440 -6.819511 -77.461674 -0.000002 -0.000000 0.000003 -15.058371 6.363973 -69.029232 0.828537 -8.182924 -68.648100 0.000001 0.000002 0.000003 0.000000 0.000000 0.000001 7.438683 -1.559888 -35.551063 -64.557090 27.631730 12.057446 -21.334267 28.660625 -3.655431 15.250424 5.811380 6.141388 -17.332281 6.465919 -26.600918 3.045323 -20.332975 1.155662 -0.000001 -0.000001 0.000002 -8.198416 4.707596 83.322243 -5.506157 0.856954 81.293287 -0.000001 -0.000001 0.000002 -13.111606 1.840086 86.637091 -5.614806 1.086085 83.801859 -0.000000 -0.000000 0.000001 -13.656401 -7.090523 77.660262 -0.188663 7.088941 77.366181 0.000001 -0.000000 -0.000000 -17.938713 -11.665086 76.767816 1.095407 11.885845 73.216623 -0.000000 -0.000000 0.000000 -0.000001 -0.000000 -0.000000 -0.000000 0.000000 -0.000000 -0.000000 -0.000000 0.000000 -0.000000 0.000000 -0.000000 -0.000000 0.000000 -0.000000 -0.000000 0.000000 -0.000000 -0.000000 -0.000000 0.000000 -0.000000 0.000000 -0.000000 -0.000000 0.000000 -0.000000 -0.000000 0.000000 -0.000000 -0.000000 -0.000000 0.000000 -0.000000 0.000000 0.000000 -0.000000 0.000000 0.000000 -0.000000 0.000000 0.000000 
